<svg xmlns="http://www.w3.org/2000/svg" xmlns:xlink="http://www.w3.org/1999/xlink" viewBox="0 0 500 500"><defs><style>.cls-1{isolation:isolate;}.cls-2{fill:#fff;}.cls-3{opacity:0.3;mix-blend-mode:multiply;fill:url(#linear-gradient);}</style><linearGradient id="linear-gradient" x1="289.94" y1="186.47" x2="363.01" y2="108.17" gradientUnits="userSpaceOnUse"><stop offset="0.14" stop-color="#231f20"/><stop offset="0.71" stop-color="#2483c5" stop-opacity="0"/></linearGradient></defs><g class="cls-1"><g id="Layer_1" data-name="Layer 1"><g id="Avatar"><path id="Avatar_Bottom" data-name="Avatar Bottom" class="cls-2" d="M377.56,245.9l1.05,39.51c0,.26,0,.52,0,.78a14.83,14.83,0,1,1-29.65,0c0-.26,0-.52,0-.78l1-39.51H149.39l1.05,39.51c0,.26,0,.52,0,.78a14.78,14.78,0,0,1-1.79,7.07,14.52,14.52,0,0,1-2.51,3.36l0,.05A15,15,0,0,1,135.63,301h0a14.83,14.83,0,0,1-14.82-14.83c0-.26,0-.52,0-.78l1-39.51H15L222.59,437.4a40,40,0,0,0,54.25,0L484.43,245.9Z"/><path id="Avatar_Right" data-name="Avatar Right" class="cls-2" d="M385.05,61.88l-1.94-3a24,24,0,0,0-32.85-5.56l-2.85,2.3L148.61,216.25H350.82l3.71-140.42h0a9.27,9.27,0,0,1,18.54.22v.16l3.71,140H484.43Z"/><path id="Avatar_Left" data-name="Avatar Left" class="cls-2" d="M114.39,61.88l1.93-3a24.05,24.05,0,0,1,32.86-5.56l2.84,2.3,198.8,160.64H148.61l-3.7-140.42h0a9.27,9.27,0,0,0-18.54.22v.16l-3.7,140H15Z"/><path class="cls-3" d="M344,58.34l-94.31,76.21,101.1,81.7,3.71-140.42h0A9.26,9.26,0,0,1,356.82,70Z"/></g></g></g></svg>