<?xml version="1.0" encoding="utf-8"?>
<!-- Generator: Adobe Illustrator 24.3.0, SVG Export Plug-In . SVG Version: 6.00 Build 0)  -->
<svg version="1.1" id="Layer_1" xmlns="http://www.w3.org/2000/svg" xmlns:xlink="http://www.w3.org/1999/xlink" x="0px" y="0px"
	 viewBox="0 0 1598.2 302.2" style="enable-background:new 0 0 1598.2 302.2;" xml:space="preserve">
<style type="text/css">
	.st0{fill:#404041;}
	.st1{fill:#117EC1;}
	.st2{fill:#424241;}
	.st3{fill:#0F7EC2;}
	.st4{opacity:0.3;fill:url(#SVGID_1_);}
	.st5{fill:#424143;}
</style>
<g id="iUGO_Care_1_">
	<path class="st0" d="M447.7,60.7c0-9.3,7.8-16.8,17.3-16.8c9.6,0,17.3,7.5,17.3,16.8c0,9.3-7.8,16.8-17.3,16.8
		C455.4,77.4,447.7,69.9,447.7,60.7z M450.1,93.6h30.1v103.1h-30.1V93.6z"/>
	<path class="st0" d="M573.2,199.9c-37,0-63.2-18.1-63.2-59V54h32.5v83.1c0,24.1,12.7,34,30.6,34c17.9,0,30.6-9.9,30.6-34V54h32.5
		v86.9C636.4,181.8,610.3,199.9,573.2,199.9L573.2,199.9z"/>
	<path class="st0" d="M799.5,116.4v68.7c0,0-20.1,14.8-58.9,14.8c-50.4,0-77.6-35.3-77.6-74.6c0-40.2,27.8-75,78.3-75
		c21.1,0,36.7,5.3,50.1,13.4l-14.9,25.3c-4.7-3.1-17.5-10.5-33.9-10.4c-25.6,0.1-46.1,17.5-46.1,46.8c0,27,17.2,46.7,45,47
		c11,0.1,20.8-1.9,27.3-4.9v-28.3h-32.1v-22.7L799.5,116.4z"/>
	<path class="st0" d="M898.4,199.9c-47,0-77.8-33.5-77.8-74.9c0-41.5,30.8-74.7,77.8-74.7c47,0,77.8,33.2,77.8,74.7
		C976.3,166.4,945.4,199.9,898.4,199.9L898.4,199.9z M898.4,171.1c27.4,0,44.4-21.8,44.4-46.1c0-24.5-16.9-45.9-44.4-45.9
		c-27.5,0-44.4,21.4-44.4,45.9C854,149.3,870.9,171.1,898.4,171.1L898.4,171.1z"/>
	<path class="st1" d="M1129.3,199.9c-46.3,0-76.7-33.4-76.7-74.9c0-41.5,30.4-74.8,76.7-74.8c17.9,0,33.6,5.1,46.1,13.9l-17.2,25.5
		c-7.4-6.6-17.4-10.6-28.5-10.6c-27,0-43.6,21.6-43.6,46.1c0,24.2,16.6,45.9,43.6,45.9c11.1,0,21.1-4,28.5-10.7l17.2,25.4
		C1162.8,194.7,1147.2,199.9,1129.3,199.9L1129.3,199.9z"/>
	<path class="st1" d="M1281.1,166.4l-54.9,0l-10.5,30.2h-35L1237,54h33.4l56.3,142.7h-35L1281.1,166.4z M1273.3,144l-19.6-56.6
		L1234,144H1273.3z"/>
	<path class="st1" d="M1447.5,149.7c8.9,14.9,13,32.6,24.4,47h-39c-6.5-11.8-10.3-31.1-18.4-43.2c-7.7-11.5-20.8-15-36.5-15.1
		c-0.8,0-1.5,0-2.2,0v58.3h-32.5V54h68c24.8,0,50.9,12.5,50.9,40.3c0,21.7-16.4,33.8-36.8,39
		C1434.9,136.7,1442.8,141.8,1447.5,149.7L1447.5,149.7z M1375.8,78.5v39.1h29.2c15.6,0,23.7-7.5,23.7-19.4
		c0-12.2-8.9-19.8-25.4-19.8L1375.8,78.5z"/>
	<path class="st1" d="M1527.8,80.6v33.5h59.3v22.5h-59.3v33.5h70.4v26.6h-102.9V54h102.9v26.6L1527.8,80.6z"/>
</g>
<g id="Avatar_18_">
	<path id="Avatar_Bottom_18_" class="st2" d="M272.7,147.9l0.8,29.7c0,0.2,0,0.4,0,0.6c0,6.2-5,11.2-11.2,11.2
		c-6.2,0-11.2-5-11.2-11.2c0-0.2,0-0.4,0-0.6l0.8-29.7H101.1l0.8,29.7c0,0.2,0,0.4,0,0.6c0,1.9-0.5,3.7-1.3,5.3
		c-0.5,0.9-1.1,1.8-1.9,2.5c0,0,0,0,0,0c-1.4,1.4-3.3,2.5-5.4,3c-0.8,0.2-1.7,0.3-2.5,0.3l0,0h0c-6.2,0-11.2-5-11.2-11.2
		c0-0.2,0-0.4,0-0.6l0.8-29.7H0l156.1,144c11.5,10.6,29.3,10.6,40.8,0l156.1-144H272.7z"/>
	<path id="Avatar_Right_18_" class="st3" d="M278.3,9.5l-1.5-2.3c-3.3-4.4-8.6-7.3-14.5-7.3c-3.8,0-7.3,1.2-10.2,3.1L250,4.8
		L100.5,125.6h152.1L255.4,20h0c0.1-3.8,3.2-6.8,7-6.8c3.9,0,7,3.1,7,7c0,0,0,0.1,0,0.1l2.8,105.3h81L278.3,9.5z"/>
	<path id="Avatar_Left_18_" class="st3" d="M74.8,9.5l1.5-2.3c3.3-4.4,8.6-7.3,14.5-7.3c3.8,0,7.3,1.2,10.2,3.1l2.1,1.7l149.5,120.8
		H100.5L97.7,20h0c-0.1-3.8-3.2-6.8-7-6.8c-3.9,0-7,3.1-7,7c0,0,0,0.1,0,0.1L81,125.6H0L74.8,9.5z"/>
	<linearGradient id="SVGID_1_" gradientUnits="userSpaceOnUse" x1="206.7973" y1="103.1963" x2="261.7587" y2="44.3037">
		<stop  offset="0.1394" style="stop-color:#231F20"/>
		<stop  offset="0.7122" style="stop-color:#2483C5;stop-opacity:0"/>
	</linearGradient>
	<path class="st4" d="M247.5,6.8l-70.9,57.3l76,61.4L255.4,20h0c0-1.7,0.7-3.2,1.7-4.4L247.5,6.8z"/>
</g>
<g>
	<path class="st5" d="M597.4,263.4c0-15.9,10.6-26.7,26.5-26.7c8.6,0,14.6,2.8,19.6,8.2l-4.3,4.1c-3.2-3.6-8-6.8-15.1-6.8
		c-12.1,0-20.3,8.2-20.3,21.1c0,13,8.3,21.2,20.2,21.2c7.6,0,12.6-3.9,15.8-7.4l4.1,4.2c-5.9,6.3-12.8,8.7-19.7,8.7
		C608.4,290,597.4,279.5,597.4,263.4z"/>
	<path class="st5" d="M647.4,270.2c0-12.3,8.3-20,19.8-20c11.4,0,19.7,7.8,19.7,20s-8.3,19.9-19.7,19.9
		C655.7,290,647.4,282.3,647.4,270.2z M680.9,270.2c0-9.2-5.9-14.9-13.8-14.9c-8,0-13.8,5.7-13.8,14.9s5.8,14.7,13.8,14.7
		C675,284.9,680.9,279.4,680.9,270.2z"/>
	<path class="st5" d="M727.3,264.9v24.6h-5.8v-23.2c0-6.8-3.1-10.9-9.7-10.9c-9.4,0-11.3,8.2-11.3,13.7v20.5h-5.9v-38.7h5.2l0.3,6.9
		c2.1-4.3,6.6-7.4,13.1-7.4C722.6,250.2,727.3,255.7,727.3,264.9z"/>
	<path class="st5" d="M769.7,264.9v24.6h-5.8v-23.2c0-6.8-3.1-10.9-9.7-10.9c-9.4,0-11.3,8.2-11.3,13.7v20.5h-5.9v-38.7h5.2l0.3,6.9
		c2.1-4.3,6.6-7.4,13.1-7.4C765.1,250.2,769.7,255.7,769.7,264.9z"/>
	<path class="st5" d="M813.1,272h-30.1c0.5,9.2,6.6,13.3,14.3,13.3c5.9,0,9.9-2.8,12.6-5.5l2.8,4.2c-5,4.5-10.1,6-15.4,6
		c-13.3,0-20.4-8-20.4-19.9c0-11.5,6.9-19.9,19.1-19.9c10.6,0,17.3,6.6,17.3,17.6C813.4,269,813.3,270.5,813.1,272z M783.1,267.8
		h24.2c0.1-0.4,0.1-0.7,0.1-1.1c0-7.3-4.3-12-11.3-12C788.7,254.7,783.6,259.4,783.1,267.8z"/>
	<path class="st5" d="M819.1,270.1c0-12,7.9-19.9,20-19.9c6.1,0,11.1,1.9,15.3,6.3l-3.3,4.2c-2.6-2.8-6.1-5.4-11.8-5.4
		c-8.3,0-14.1,5.7-14.1,14.8c0,9.3,5.9,15,14.2,15c5.7,0,9.5-2.8,11.8-5.5l3.5,4.2c-4.8,4.8-9.7,6.3-15.5,6.3
		C827.4,290,819.1,282.4,819.1,270.1z"/>
	<path class="st5" d="M867.1,278v-22.6h-8.8v-4.7h4.6c3.5,0,4.7-1.9,4.7-5.2v-6.9h5.3v12.1h12.9v4.7h-12.9v22.1
		c0,3.4,0.4,7.6,5.6,7.6c2.8,0,5.9-0.4,7.5-0.7l0.1,4.8c-1.8,0.4-5.6,0.7-8.8,0.7C869.4,290,867.1,284.5,867.1,278z"/>
	<path class="st5" d="M926.2,272h-30.1c0.5,9.2,6.6,13.3,14.3,13.3c5.9,0,9.9-2.8,12.6-5.5l2.8,4.2c-5,4.5-10.1,6-15.4,6
		c-13.3,0-20.4-8-20.4-19.9c0-11.5,6.9-19.9,19.1-19.9c10.6,0,17.3,6.6,17.3,17.6C926.5,269,926.4,270.5,926.2,272z M896.2,267.8
		h24.2c0.1-0.4,0.1-0.7,0.1-1.1c0-7.3-4.3-12-11.3-12C901.7,254.7,896.7,259.4,896.2,267.8z"/>
	<path class="st5" d="M970.9,232v57.5h-5.3l-0.5-8.2c-2.9,6.3-8.8,8.7-15,8.7c-11.7,0-18.1-8.7-18.1-19.9c0-11.2,6.6-19.9,18.4-19.9
		c6.5,0,11.9,2.8,14.6,7.9V232H970.9z M965.1,270.1c0-8.6-5.7-14.8-13.5-14.8c-8.2,0-13.6,5.8-13.6,14.8s5.4,14.8,13.6,14.8
		C959.1,284.9,965.1,278.9,965.1,270.1z"/>
	<path class="st5" d="M998.3,263.4c0-15.9,10.6-26.7,26.5-26.7c8.6,0,14.6,2.8,19.6,8.2l-4.3,4.1c-3.2-3.6-8-6.8-15.1-6.8
		c-12.1,0-20.3,8.2-20.3,21.1c0,13,8.3,21.2,20.2,21.2c7.6,0,12.6-3.9,15.8-7.4l4.1,4.2c-5.9,6.3-12.8,8.7-19.7,8.7
		C1009.2,290,998.3,279.5,998.3,263.4z"/>
	<path class="st5" d="M1087.1,250.7v38.7h-5.3l-0.5-8.3c-2.9,6.4-8.8,8.9-15,8.9c-11.4,0-18.1-8.5-18.1-19.8
		c0-11.5,6.9-20.1,18.4-20.1c6.7,0,12.1,3,14.8,8.4l0.4-7.8H1087.1z M1081.4,270.2c0-8.8-5.9-14.9-13.5-14.9
		c-8,0-13.6,5.6-13.6,14.9c0,9.1,5.6,14.7,13.6,14.7C1075.2,284.9,1081.4,279.1,1081.4,270.2z"/>
	<path class="st5" d="M1116.4,250.7l-0.1,5.1c-1.1-0.2-2.3-0.4-3.5-0.4c-6.9,0-9.9,8.2-9.9,17.6v16.5h-5.9v-38.7h4.9l0.5,9.8
		c1.4-5.5,4.7-10.3,10.4-10.3C1114,250.3,1115.4,250.4,1116.4,250.7z"/>
	<path class="st5" d="M1155.3,272h-30.1c0.5,9.2,6.6,13.3,14.3,13.3c5.9,0,9.9-2.8,12.6-5.5l2.8,4.2c-5,4.5-10.1,6-15.4,6
		c-13.3,0-20.4-8-20.4-19.9c0-11.5,6.9-19.9,19.1-19.9c10.6,0,17.3,6.6,17.3,17.6C1155.6,269,1155.5,270.5,1155.3,272z
		 M1125.3,267.8h24.2c0.1-0.4,0.1-0.7,0.1-1.1c0-7.3-4.3-12-11.3-12C1130.9,254.7,1125.8,259.4,1125.3,267.8z"/>
	<path class="st5" d="M1162.3,286.2c0-2.2,1.7-3.9,3.8-3.9s3.8,1.7,3.8,3.9c0,2.2-1.7,3.9-3.8,3.9S1162.3,288.4,1162.3,286.2z"/>
	<path class="st1" d="M1198.7,237.3h34.7v5.1h-28.5v19h24.6v5.1h-24.6v17.8h29.4v5.1h-35.6V237.3z"/>
	<path class="st1" d="M1237.2,250.7h6.2l5.4,15.3c2,5.7,4.2,12.7,5.9,18.5h0.2c1.8-5.8,4-12.8,6.1-18.5l5.5-15.3h5.6l-14,39.2h-7
		L1237.2,250.7z"/>
	<path class="st1" d="M1310.8,272h-30.1c0.5,9.2,6.6,13.3,14.3,13.3c5.9,0,9.9-2.8,12.6-5.5l2.8,4.2c-5,4.5-10.1,6-15.4,6
		c-13.3,0-20.4-8-20.4-19.9c0-11.5,6.9-19.9,19.1-19.9c10.6,0,17.3,6.6,17.3,17.6C1311.1,269,1311,270.5,1310.8,272z M1280.8,267.8
		h24.2c0.1-0.4,0.1-0.7,0.1-1.1c0-7.3-4.3-12-11.3-12C1286.4,254.7,1281.3,259.4,1280.8,267.8z"/>
	<path class="st1" d="M1338.5,250.7l-0.1,5.1c-1.1-0.2-2.3-0.4-3.5-0.4c-6.9,0-9.9,8.2-9.9,17.6v16.5h-5.9v-38.7h4.9l0.5,9.8
		c1.4-5.5,4.7-10.3,10.4-10.3C1336.1,250.3,1337.4,250.4,1338.5,250.7z"/>
	<path class="st1" d="M1376.7,250.7l-19.4,51.4h-5.9l4.7-12.2l-15.5-39.2h6.2l7,18.2c1.8,4.7,3.6,9.6,5.3,14.4h0.1
		c1.6-4.5,3.1-8.9,5-14.4l6.6-18.2H1376.7z"/>
	<path class="st1" d="M1433.6,250.7l-11.2,39.1h-7.2l-4.9-17.6l-3.7-14.1l-3.8,14.2l-5,17.5h-7.3l-11-39.1h5.6l5.2,18.5l4,15l4-15
		l5.2-18.8h6.3l5.1,18.8l4,15.1l4-15.1l5.2-18.5H1433.6z"/>
	<path class="st1" d="M1472.7,264.9v24.6h-5.8v-23.2c0-6.8-3.1-10.9-9.7-10.9c-9.4,0-11.3,8.2-11.3,13.7v20.5h-5.9V232h5.9v24.8
		c2.4-3.9,6.9-6.6,12.8-6.6C1468,250.2,1472.7,255.7,1472.7,264.9z"/>
	<path class="st1" d="M1516.1,272h-30.1c0.5,9.2,6.6,13.3,14.3,13.3c5.9,0,9.9-2.8,12.6-5.5l2.8,4.2c-5,4.5-10.1,6-15.4,6
		c-13.3,0-20.4-8-20.4-19.9c0-11.5,6.9-19.9,19.1-19.9c10.6,0,17.3,6.6,17.3,17.6C1516.4,269,1516.4,270.5,1516.1,272z
		 M1486.1,267.8h24.2c0.1-0.4,0.1-0.7,0.1-1.1c0-7.3-4.3-12-11.3-12C1491.7,254.7,1486.6,259.4,1486.1,267.8z"/>
	<path class="st1" d="M1543.8,250.7l-0.1,5.1c-1.1-0.2-2.3-0.4-3.5-0.4c-6.9,0-9.9,8.2-9.9,17.6v16.5h-5.9v-38.7h4.9l0.5,9.8
		c1.4-5.5,4.7-10.3,10.4-10.3C1541.4,250.3,1542.8,250.4,1543.8,250.7z"/>
	<path class="st1" d="M1582.6,272h-30.1c0.5,9.2,6.6,13.3,14.3,13.3c5.9,0,9.9-2.8,12.6-5.5l2.8,4.2c-5,4.5-10.1,6-15.4,6
		c-13.3,0-20.4-8-20.4-19.9c0-11.5,6.9-19.9,19.1-19.9c10.6,0,17.3,6.6,17.3,17.6C1582.9,269,1582.9,270.5,1582.6,272z
		 M1552.6,267.8h24.2c0.1-0.4,0.1-0.7,0.1-1.1c0-7.3-4.3-12-11.3-12C1558.2,254.7,1553.1,259.4,1552.6,267.8z"/>
	<path class="st1" d="M1589.6,286.2c0-2.2,1.7-3.9,3.8-3.9s3.8,1.7,3.8,3.9c0,2.2-1.7,3.9-3.8,3.9S1589.6,288.4,1589.6,286.2z"/>
</g>
</svg>
