<svg id="Layer_1" data-name="Layer 1" xmlns="http://www.w3.org/2000/svg" xmlns:xlink="http://www.w3.org/1999/xlink" viewBox="0 0 1840.24 301.52"><defs><style>.cls-1{fill:#fff;}.cls-2{opacity:0.3;isolation:isolate;fill:url(#linear-gradient);}</style><linearGradient id="linear-gradient" x1="206.78" y1="196.73" x2="261.74" y2="255.62" gradientTransform="matrix(1, 0, 0, -1, 0, 300)" gradientUnits="userSpaceOnUse"><stop offset="0.14" stop-color="#231f20"/><stop offset="0.71" stop-color="#2484c6" stop-opacity="0"/></linearGradient></defs><g id="Logo"><g id="iUGO_Health_W" data-name="iUGO Health W"><path class="cls-1" d="M447.68,60.75C447.68,51.48,455.44,44,465,44s17.34,7.52,17.34,16.79S474.6,77.54,465,77.54A17.05,17.05,0,0,1,447.68,60.75Zm2.42,32.9h30.06V196.79H450.1Z"/><path class="cls-1" d="M573.24,200c-37,0-63.18-18.13-63.18-59V54.13H542.6v83.05c0,24.08,12.72,34,30.64,34s30.63-9.94,30.63-34V54.13h32.54V141C636.41,181.9,610.29,200,573.24,200Z"/><path class="cls-1" d="M799.49,116.52v68.7S779.34,200,740.62,200C690.18,200,663,164.67,663,125.39c0-40.22,27.81-75,78.35-75,21.09,0,36.71,5.25,50.06,13.38L776.44,89c-4.67-3-17.53-10.47-33.89-10.39-25.59.11-46.14,17.48-46.14,46.76,0,27,17.19,46.74,45,47,11,.09,20.76-1.86,27.3-4.92V139.18h-32V116.53Z"/><path class="cls-1" d="M898.41,200c-47,0-77.85-33.48-77.85-74.93s30.83-74.72,77.85-74.72,77.85,33.23,77.85,74.72S945.38,200,898.41,200Zm0-28.82c27.37,0,44.41-21.82,44.41-46.11,0-24.48-16.93-45.9-44.41-45.9S854,100.61,854,125.09c0,24.29,16.93,46.11,44.41,46.11Z"/><path class="cls-1" d="M1185.87,54.13V196.79h-32.54V137.12h-61.5v59.67h-32.55V54.13h32.55v56.76h61.5V54.13Z"/><path class="cls-1" d="M1252.76,80.7v33.52H1312V136.7h-59.25v33.52h70.4v26.57h-103V54.13h103V80.7Z"/><path class="cls-1" d="M1433.36,166.5l-54.88.05L1368,196.79h-35l56.26-142.66h33.35l56.26,142.66h-35Zm-7.78-22.44-19.65-56.62-19.65,56.62Z"/><path class="cls-1" d="M1590.91,169.38v27.4h-95.42V54.13H1528V169.38Z"/><path class="cls-1" d="M1694,81.25h-40.72V196.79h-32.55V81.25H1580V54.13h114Z"/><path class="cls-1" d="M1839.4,54.13V196.79h-32.54V137.12h-61.5v59.67h-32.54V54.13h32.54v56.76h61.5V54.13Z"/></g><g id="Avatar"><path id="Avatar_Bottom" data-name="Avatar Bottom" class="cls-1" d="M272.7,148l.79,29.72v.59a11.15,11.15,0,0,1-22.3,0v-.61L252,148H101.09l.78,29.72v.59a11.06,11.06,0,0,1-1.35,5.31,11.44,11.44,0,0,1-1.89,2.53h0a11.27,11.27,0,0,1-7.89,3.27h0a11.15,11.15,0,0,1-11.15-11.15v-.59L80.38,148H0L156.14,292A30.1,30.1,0,0,0,197,292L353.09,148Z"/><path id="Avatar_Right" data-name="Avatar Right" class="cls-1" d="M278.33,9.58l-1.45-2.26a18.09,18.09,0,0,0-24.72-4.18L250,4.87,100.5,125.69H252.59l2.79-105.62h0a7,7,0,0,1,13.95.17v.11l2.79,105.34h81Z"/><path id="Avatar_Left" data-name="Avatar Left" class="cls-1" d="M74.76,9.58l1.45-2.26a18.08,18.08,0,0,1,24.71-4.18l2.14,1.73L252.59,125.69H100.5L97.71,20.07h0a7,7,0,0,0-13.94.17v.11L81,125.69H0Z"/><path class="cls-2" d="M247.48,6.92,176.54,64.24l76,61.45,2.79-105.62h0a7,7,0,0,1,1.72-4.41Z"/></g></g><g id="Tag"><path class="cls-1" d="M840.41,263.48c0-15.94,10.59-26.66,26.48-26.66,8.61,0,14.61,2.76,19.63,8.19l-4.31,4.1a19.51,19.51,0,0,0-15.11-6.78c-12.14,0-20.33,8.19-20.33,21.07s8.33,21.22,20.19,21.22c7.55,0,12.64-3.95,15.81-7.45l4.1,4.17a26.15,26.15,0,0,1-19.7,8.71C851.36,290.05,840.41,279.63,840.41,263.48Z"/><path class="cls-1" d="M890.33,270.25c0-12.28,8.26-19.95,19.77-19.95s19.7,7.82,19.7,19.95-8.33,19.88-19.7,19.88S890.33,282.38,890.33,270.25Zm33.54,0c0-9.23-5.86-14.89-13.77-14.89s-13.77,5.66-13.77,14.89S902.12,285,910.1,285,923.87,279.48,923.87,270.25Z"/><path class="cls-1" d="M970.25,265v24.57h-5.79V266.3c0-6.77-3.1-10.94-9.67-10.94-9.39,0-11.29,8.19-11.29,13.7v20.47h-5.86V250.82h5.15l.28,6.92c2.12-4.32,6.64-7.44,13.13-7.44C965.59,250.3,970.25,255.81,970.25,265Z"/><path class="cls-1" d="M1012.69,265v24.57h-5.79V266.3c0-6.77-3.11-10.94-9.67-10.94-9.39,0-11.3,8.19-11.3,13.7v20.47h-5.86V250.82h5.15l.29,6.92c2.11-4.32,6.63-7.44,13.13-7.44C1008,250.3,1012.69,255.81,1012.69,265Z"/><path class="cls-1" d="M1056.11,272.11H1026c.5,9.23,6.64,13.33,14.34,13.33a17.25,17.25,0,0,0,12.63-5.51l2.76,4.17a21.68,21.68,0,0,1-15.39,5.95c-13.28,0-20.41-8-20.41-19.87,0-11.54,6.92-19.88,19.13-19.88,10.6,0,17.3,6.62,17.3,17.57A31.54,31.54,0,0,1,1056.11,272.11Zm-30-4.24h24.22a6,6,0,0,0,.07-1.12c0-7.29-4.31-12-11.3-12-7.42,0-12.5,4.71-13,13.12Z"/><path class="cls-1" d="M1062,270.18c0-12,7.91-19.88,20-19.88a20.35,20.35,0,0,1,15.32,6.25l-3.32,4.17a15.22,15.22,0,0,0-11.79-5.43c-8.33,0-14.12,5.65-14.12,14.81s5.93,15,14.19,15a15.14,15.14,0,0,0,11.79-5.51l3.46,4.17a20.07,20.07,0,0,1-15.46,6.32C1070.37,290.05,1062,282.53,1062,270.18Z"/><path class="cls-1" d="M1110.05,278.07V255.51h-8.75v-4.69h4.59c3.53,0,4.66-1.86,4.66-5.21v-6.93h5.29v12.14h12.92v4.69h-12.92v22.11c0,3.42.35,7.59,5.58,7.59a45.79,45.79,0,0,0,7.48-.74l.14,4.84a45.09,45.09,0,0,1-8.75.74C1112.38,290.05,1110.05,284.62,1110.05,278.07Z"/><path class="cls-1" d="M1169.15,272.11h-30.08c.49,9.23,6.64,13.33,14.33,13.33a17.27,17.27,0,0,0,12.64-5.51l2.75,4.17a21.62,21.62,0,0,1-15.39,5.95c-13.27,0-20.4-8-20.4-19.87,0-11.54,6.92-19.88,19.13-19.88,10.59,0,17.3,6.62,17.3,17.57A31.56,31.56,0,0,1,1169.15,272.11Zm-30-4.24h24.22a6,6,0,0,0,.07-1.12c0-7.29-4.31-12-11.3-12-7.42,0-12.51,4.71-13,13.12Z"/><path class="cls-1" d="M1213.84,232.06v57.47h-5.3l-.49-8.19c-2.9,6.26-8.83,8.71-15,8.71-11.72,0-18.14-8.71-18.14-19.87s6.63-19.88,18.42-19.88c6.5,0,11.87,2.75,14.62,7.89V232.06Zm-5.72,38.12c0-8.57-5.72-14.82-13.49-14.82-8.19,0-13.62,5.81-13.62,14.82s5.43,14.81,13.62,14.81C1202.12,285,1208.12,279,1208.12,270.18Z"/><path class="cls-1" d="M1241.23,263.48c0-15.94,10.59-26.66,26.48-26.66,8.61,0,14.61,2.76,19.63,8.19l-4.31,4.1a19.51,19.51,0,0,0-15.11-6.78c-12.14,0-20.33,8.19-20.33,21.07s8.33,21.22,20.19,21.22c7.55,0,12.64-3.95,15.82-7.45l4.09,4.17a26.15,26.15,0,0,1-19.7,8.71C1252.18,290.05,1241.23,279.63,1241.23,263.48Z"/><path class="cls-1" d="M1330.05,250.82v38.71h-5.29l-.5-8.34c-2.89,6.41-8.82,8.94-15,8.94-11.44,0-18.15-8.49-18.15-19.8,0-11.47,6.92-20.11,18.43-20.11,6.71,0,12.14,3,14.76,8.42l.35-7.82Zm-5.71,19.43c0-8.78-5.86-14.89-13.49-14.89-8,0-13.63,5.58-13.63,14.89,0,9.08,5.58,14.74,13.63,14.74,7.34,0,13.49-5.81,13.49-14.74Z"/><path class="cls-1" d="M1359.43,250.82l-.15,5.06a18.23,18.23,0,0,0-3.53-.44c-6.91,0-9.88,8.18-9.88,17.64v16.45H1340V250.82h4.87l.5,9.83c1.41-5.51,4.73-10.28,10.45-10.28A13.74,13.74,0,0,1,1359.43,250.82Z"/><path class="cls-1" d="M1398.26,272.11h-30.08c.5,9.23,6.64,13.33,14.33,13.33a17.27,17.27,0,0,0,12.64-5.51l2.76,4.17a21.64,21.64,0,0,1-15.4,5.95c-13.27,0-20.4-8-20.4-19.87,0-11.54,6.92-19.88,19.13-19.88,10.59,0,17.3,6.62,17.3,17.57A31.56,31.56,0,0,1,1398.26,272.11Zm-30-4.24h24.22a6,6,0,0,0,.07-1.12c0-7.29-4.31-12-11.3-12-7.42,0-12.5,4.71-13,13.12Z"/><path class="cls-1" d="M1405.25,286.33a3.81,3.81,0,1,1,3.81,3.87,3.82,3.82,0,0,1-3.81-3.87Z"/><path class="cls-1" d="M1441.68,237.42h34.67v5.14h-28.53v19h24.57v5.06h-24.57v17.8h29.44v5.13h-35.58Z"/><path class="cls-1" d="M1480.16,250.82h6.21l5.44,15.34c2,5.73,4.16,12.73,5.93,18.53h.21c1.84-5.8,4-12.8,6.07-18.53l5.51-15.34h5.58l-14,39.23h-7Z"/><path class="cls-1" d="M1553.8,272.11h-30.08c.5,9.23,6.64,13.33,14.34,13.33a17.25,17.25,0,0,0,12.63-5.51l2.76,4.17a21.68,21.68,0,0,1-15.39,5.95c-13.28,0-20.41-8-20.41-19.87,0-11.54,6.92-19.88,19.13-19.88,10.6,0,17.3,6.62,17.3,17.57A31.56,31.56,0,0,1,1553.8,272.11Zm-30-4.24H1548a6,6,0,0,0,.07-1.12c0-7.29-4.31-12-11.3-12-7.4,0-12.48,4.71-13,13.12Z"/><path class="cls-1" d="M1581.48,250.82l-.14,5.06a18.23,18.23,0,0,0-3.53-.44c-6.92,0-9.89,8.18-9.89,17.64v16.45h-5.86V250.82h4.87l.5,9.83c1.41-5.51,4.73-10.28,10.45-10.28A14.15,14.15,0,0,1,1581.48,250.82Z"/><path class="cls-1" d="M1619.67,250.82l-19.41,51.37h-5.86l4.73-12.21-15.53-39.16h6.21l7,18.16c1.76,4.69,3.6,9.61,5.29,14.37h.14c1.63-4.54,3.11-8.93,5-14.37l6.63-18.16Z"/><path class="cls-1" d="M1676.58,250.82l-11.16,39.08h-7.2l-4.94-17.57-3.67-14.14-3.81,14.22-5,17.49h-7.27l-11-39.08h5.65l5.15,18.54,4,15,4-15,5.22-18.84h6.29l5.08,18.84,4,15.11,4-15.11,5.22-18.54Z"/><path class="cls-1" d="M1715.7,265v24.57h-5.79V266.3c0-6.77-3.11-10.94-9.68-10.94-9.39,0-11.29,8.19-11.29,13.7v20.47h-5.86V232.06h5.86v24.79c2.4-3.87,6.92-6.55,12.85-6.55C1711,250.3,1715.7,255.81,1715.7,265Z"/><path class="cls-1" d="M1759.12,272.11H1729c.5,9.23,6.64,13.33,14.33,13.33a17.27,17.27,0,0,0,12.64-5.51l2.76,4.17a21.64,21.64,0,0,1-15.4,5.95c-13.27,0-20.4-8-20.4-19.87,0-11.54,6.92-19.88,19.13-19.88,10.59,0,17.3,6.62,17.3,17.57A30,30,0,0,1,1759.12,272.11Zm-30-4.24h24.22a6,6,0,0,0,.07-1.12c0-7.29-4.31-12-11.3-12-7.42,0-12.5,4.71-13,13.12Z"/><path class="cls-1" d="M1786.79,250.82l-.14,5.06a18.23,18.23,0,0,0-3.53-.44c-6.92,0-9.88,8.18-9.88,17.64v16.45h-5.86V250.82h4.87l.5,9.83c1.41-5.51,4.73-10.28,10.44-10.28A13.72,13.72,0,0,1,1786.79,250.82Z"/><path class="cls-1" d="M1825.63,272.11h-30.08c.49,9.23,6.64,13.33,14.33,13.33a17.27,17.27,0,0,0,12.64-5.51l2.75,4.17a21.62,21.62,0,0,1-15.39,5.95c-13.27,0-20.4-8-20.4-19.87,0-11.54,6.92-19.88,19.13-19.88,10.59,0,17.3,6.62,17.3,17.57A31.56,31.56,0,0,1,1825.63,272.11Zm-30-4.24h24.22a6,6,0,0,0,.07-1.12c0-7.29-4.31-12-11.3-12-7.42,0-12.5,4.71-13,13.12Z"/><path class="cls-1" d="M1832.62,286.33a3.81,3.81,0,1,1,3.81,3.87,3.82,3.82,0,0,1-3.81-3.87Z"/></g></svg>