<?xml version="1.0" encoding="utf-8"?>
<!-- Generator: Adobe Illustrator 24.3.0, SVG Export Plug-In . SVG Version: 6.00 Build 0)  -->
<svg version="1.1" id="Layer_1" xmlns="http://www.w3.org/2000/svg" xmlns:xlink="http://www.w3.org/1999/xlink" x="0px" y="0px"
	 viewBox="0 0 1789.4 302.2" style="enable-background:new 0 0 1789.4 302.2;" xml:space="preserve">
<style type="text/css">
	.st0{fill:#FFFFFF;}
	.st1{opacity:0.3;fill:url(#SVGID_1_);}
</style>
<g id="Avatar_7_">
	<path id="Avatar_Bottom_7_" class="st0" d="M274.5,148l0.8,29.7c0,0.2,0,0.4,0,0.6c0,6.2-5,11.2-11.2,11.2c-6.2,0-11.2-5-11.2-11.2
		c0-0.2,0-0.4,0-0.6l0.8-29.7H102.8l0.8,29.7c0,0.2,0,0.4,0,0.6c0,1.9-0.5,3.7-1.3,5.3c-0.5,0.9-1.1,1.8-1.9,2.5c0,0,0,0,0,0
		c-1.4,1.4-3.3,2.5-5.4,3c-0.8,0.2-1.7,0.3-2.5,0.3l0,0h0c-6.2,0-11.2-5-11.2-11.2c0-0.2,0-0.4,0-0.6l0.8-29.7H1.8l156.1,144
		c11.5,10.6,29.3,10.6,40.8,0l156.1-144H274.5z"/>
	<path id="Avatar_Right_7_" class="st0" d="M280.1,9.6l-1.5-2.3c-3.3-4.4-8.6-7.3-14.5-7.3c-3.8,0-7.3,1.2-10.2,3.1l-2.1,1.7
		L102.3,125.7h152.1l2.8-105.6h0c0.1-3.8,3.2-6.8,7-6.8c3.9,0,7,3.1,7,7c0,0,0,0.1,0,0.1l2.8,105.3h81L280.1,9.6z"/>
	<path id="Avatar_Left_7_" class="st0" d="M76.5,9.6L78,7.3C81.3,2.9,86.5,0,92.5,0c3.8,0,7.3,1.2,10.2,3.1l2.1,1.7l149.5,120.8
		H102.3L99.5,20.1h0c-0.1-3.8-3.2-6.8-7-6.8c-3.9,0-7,3.1-7,7c0,0,0,0.1,0,0.1l-2.8,105.3h-81L76.5,9.6z"/>
	<linearGradient id="SVGID_1_" gradientUnits="userSpaceOnUse" x1="208.5604" y1="103.2913" x2="263.5218" y2="44.3987">
		<stop  offset="0.1394" style="stop-color:#231F20"/>
		<stop  offset="0.7122" style="stop-color:#2483C5;stop-opacity:0"/>
	</linearGradient>
	<path class="st1" d="M249.2,6.9l-70.9,57.3l76,61.4l2.8-105.6h0c0-1.7,0.7-3.2,1.7-4.4L249.2,6.9z"/>
</g>
<g>
	<path class="st0" d="M610.1,55.2v142.5h-31.4v-76.2l-35.8,76.2h-19.1l-35.8-76.2v76.2h-31.4V55.2h28.6l48.1,103.4l48.1-103.4H610.1
		z"/>
	<path class="st0" d="M638.8,61.8c0-9.3,7.8-16.8,17.3-16.8c9.6,0,17.3,7.5,17.3,16.8s-7.8,16.8-17.3,16.8
		C646.6,78.6,638.8,71.1,638.8,61.8z M641.2,94.7h30v103h-30V94.7z"/>
	<path class="st0" d="M764.2,200.9c-37,0-63.1-18.1-63.1-59V55.2h32.5v83c0,24,12.7,34,30.6,34c17.9,0,30.6-9.9,30.6-34v-83h32.5
		v86.8C827.3,182.8,801.2,200.9,764.2,200.9L764.2,200.9z"/>
	<path class="st0" d="M990.2,117.5v68.6c0,0-20.1,14.8-58.8,14.8c-50.4,0-77.6-35.3-77.6-74.5c0-40.2,27.8-74.9,78.3-74.9
		c21.1,0,36.7,5.2,50,13.4L967.2,90c-4.7-3-17.5-10.5-33.9-10.4c-25.6,0.1-46.1,17.5-46.1,46.7c0,27,17.2,46.7,45,47
		c11,0.1,20.7-1.9,27.3-4.9v-28.3h-32v-22.6L990.2,117.5z"/>
	<path class="st0" d="M1089,200.9c-47,0-77.8-33.4-77.8-74.8c0-41.4,30.8-74.6,77.8-74.6c46.9,0,77.8,33.2,77.8,74.6
		C1166.8,167.5,1135.9,200.9,1089,200.9L1089,200.9z M1089,172.1c27.3,0,44.4-21.8,44.4-46.1c0-24.5-16.9-45.8-44.4-45.8
		s-44.4,21.4-44.4,45.8C1044.6,150.3,1061.5,172.1,1089,172.1L1089,172.1z"/>
	<path class="st0" d="M1319.6,200.9c-46.2,0-76.6-33.4-76.6-74.8c0-41.4,30.3-74.7,76.6-74.7c17.9,0,33.6,5.1,46.1,13.9l-17.2,25.4
		c-7.4-6.6-17.4-10.6-28.5-10.6c-27,0-43.6,21.5-43.6,46c0,24.2,16.6,45.9,43.6,45.9c11.1,0,21.1-4,28.5-10.7l17.2,25.4
		C1353.1,195.7,1337.5,200.9,1319.6,200.9L1319.6,200.9z"/>
	<path class="st0" d="M1471.3,167.4l-54.8,0l-10.5,30.2h-35l56.2-142.5h33.3l56.2,142.5h-35L1471.3,167.4z M1463.5,145l-19.6-56.6
		l-19.6,56.6H1463.5z"/>
	<path class="st0" d="M1637.4,150.7c8.8,14.9,13,32.6,24.4,47h-39c-6.5-11.8-10.3-31.1-18.4-43.1c-7.7-11.5-20.8-15-36.4-15.1
		c-0.8,0-1.5,0-2.2,0v58.2h-32.5V55.2h67.9c24.7,0,50.9,12.5,50.9,40.3c0,21.7-16.3,33.8-36.7,39
		C1624.9,137.8,1632.7,142.9,1637.4,150.7L1637.4,150.7z M1565.8,79.6v39.1h29.2c15.5,0,23.7-7.5,23.7-19.4
		c0-12.2-8.8-19.7-25.4-19.7L1565.8,79.6z"/>
	<path class="st0" d="M1717.7,81.7v33.5h59.2v22.5h-59.2v33.5h70.3v26.5h-102.8V55.2H1788v26.5L1717.7,81.7z"/>
</g>
<g>
	<path class="st0" d="M789.5,263.5c0-15.9,10.6-26.7,26.5-26.7c8.6,0,14.6,2.8,19.6,8.2l-4.3,4.1c-3.2-3.6-8-6.8-15.1-6.8
		c-12.1,0-20.3,8.2-20.3,21.1c0,13,8.3,21.2,20.2,21.2c7.6,0,12.6-3.9,15.8-7.4l4.1,4.2c-5.9,6.3-12.8,8.7-19.7,8.7
		C800.5,290.1,789.5,279.6,789.5,263.5z"/>
	<path class="st0" d="M839.4,270.3c0-12.3,8.3-20,19.8-20c11.4,0,19.7,7.8,19.7,20s-8.3,19.9-19.7,19.9
		C847.8,290.1,839.4,282.4,839.4,270.3z M873,270.3c0-9.2-5.9-14.9-13.8-14.9c-8,0-13.8,5.7-13.8,14.9s5.8,14.7,13.8,14.7
		C867.1,285,873,279.5,873,270.3z"/>
	<path class="st0" d="M919.4,265v24.6h-5.8v-23.2c0-6.8-3.1-10.9-9.7-10.9c-9.4,0-11.3,8.2-11.3,13.7v20.5h-5.9v-38.7h5.2l0.3,6.9
		c2.1-4.3,6.6-7.4,13.1-7.4C914.7,250.3,919.4,255.8,919.4,265z"/>
	<path class="st0" d="M961.8,265v24.6H956v-23.2c0-6.8-3.1-10.9-9.7-10.9c-9.4,0-11.3,8.2-11.3,13.7v20.5h-5.9v-38.7h5.2l0.3,6.9
		c2.1-4.3,6.6-7.4,13.1-7.4C957.1,250.3,961.8,255.8,961.8,265z"/>
	<path class="st0" d="M1005.2,272.1h-30.1c0.5,9.2,6.6,13.3,14.3,13.3c5.9,0,9.9-2.8,12.6-5.5l2.8,4.2c-5,4.5-10.1,6-15.4,6
		c-13.3,0-20.4-8-20.4-19.9c0-11.5,6.9-19.9,19.1-19.9c10.6,0,17.3,6.6,17.3,17.6C1005.5,269.1,1005.4,270.6,1005.2,272.1z
		 M975.2,267.9h24.2c0.1-0.4,0.1-0.7,0.1-1.1c0-7.3-4.3-12-11.3-12C980.8,254.8,975.7,259.5,975.2,267.9z"/>
	<path class="st0" d="M1011.2,270.2c0-12,7.9-19.9,20-19.9c6.1,0,11.1,1.9,15.3,6.3l-3.3,4.2c-2.6-2.8-6.1-5.4-11.8-5.4
		c-8.3,0-14.1,5.7-14.1,14.8c0,9.3,5.9,15,14.2,15c5.7,0,9.5-2.8,11.8-5.5l3.5,4.2c-4.8,4.8-9.7,6.3-15.5,6.3
		C1019.5,290.1,1011.2,282.5,1011.2,270.2z"/>
	<path class="st0" d="M1059.2,278.1v-22.6h-8.8v-4.7h4.6c3.5,0,4.7-1.9,4.7-5.2v-6.9h5.3v12.1h12.9v4.7h-12.9v22.1
		c0,3.4,0.4,7.6,5.6,7.6c2.8,0,5.9-0.4,7.5-0.7l0.1,4.8c-1.8,0.4-5.6,0.7-8.8,0.7C1061.5,290.1,1059.2,284.6,1059.2,278.1z"/>
	<path class="st0" d="M1118.3,272.1h-30.1c0.5,9.2,6.6,13.3,14.3,13.3c5.9,0,9.9-2.8,12.6-5.5l2.8,4.2c-5,4.5-10.1,6-15.4,6
		c-13.3,0-20.4-8-20.4-19.9c0-11.5,6.9-19.9,19.1-19.9c10.6,0,17.3,6.6,17.3,17.6C1118.5,269.1,1118.5,270.6,1118.3,272.1z
		 M1088.3,267.9h24.2c0.1-0.4,0.1-0.7,0.1-1.1c0-7.3-4.3-12-11.3-12C1093.8,254.8,1088.7,259.5,1088.3,267.9z"/>
	<path class="st0" d="M1162.9,232.1v57.5h-5.3l-0.5-8.2c-2.9,6.3-8.8,8.7-15,8.7c-11.7,0-18.1-8.7-18.1-19.9
		c0-11.2,6.6-19.9,18.4-19.9c6.5,0,11.9,2.8,14.6,7.9v-26.1H1162.9z M1157.2,270.2c0-8.6-5.7-14.8-13.5-14.8
		c-8.2,0-13.6,5.8-13.6,14.8s5.4,14.8,13.6,14.8C1151.2,285,1157.2,279,1157.2,270.2z"/>
	<path class="st0" d="M1190.3,263.5c0-15.9,10.6-26.7,26.5-26.7c8.6,0,14.6,2.8,19.6,8.2l-4.3,4.1c-3.2-3.6-8-6.8-15.1-6.8
		c-12.1,0-20.3,8.2-20.3,21.1c0,13,8.3,21.2,20.2,21.2c7.6,0,12.6-3.9,15.8-7.4l4.1,4.2c-5.9,6.3-12.8,8.7-19.7,8.7
		C1201.3,290.1,1190.3,279.6,1190.3,263.5z"/>
	<path class="st0" d="M1279.2,250.8v38.7h-5.3l-0.5-8.3c-2.9,6.4-8.8,8.9-15,8.9c-11.4,0-18.1-8.5-18.1-19.8
		c0-11.5,6.9-20.1,18.4-20.1c6.7,0,12.1,3,14.8,8.4l0.4-7.8H1279.2z M1273.4,270.3c0-8.8-5.9-14.9-13.5-14.9
		c-8,0-13.6,5.6-13.6,14.9c0,9.1,5.6,14.7,13.6,14.7C1267.3,285,1273.4,279.2,1273.4,270.3z"/>
	<path class="st0" d="M1308.5,250.8l-0.1,5.1c-1.1-0.2-2.3-0.4-3.5-0.4c-6.9,0-9.9,8.2-9.9,17.6v16.5h-5.9v-38.7h4.9l0.5,9.8
		c1.4-5.5,4.7-10.3,10.4-10.3C1306.1,250.4,1307.5,250.5,1308.5,250.8z"/>
	<path class="st0" d="M1347.4,272.1h-30.1c0.5,9.2,6.6,13.3,14.3,13.3c5.9,0,9.9-2.8,12.6-5.5l2.8,4.2c-5,4.5-10.1,6-15.4,6
		c-13.3,0-20.4-8-20.4-19.9c0-11.5,6.9-19.9,19.1-19.9c10.6,0,17.3,6.6,17.3,17.6C1347.7,269.1,1347.6,270.6,1347.4,272.1z
		 M1317.4,267.9h24.2c0.1-0.4,0.1-0.7,0.1-1.1c0-7.3-4.3-12-11.3-12C1322.9,254.8,1317.9,259.5,1317.4,267.9z"/>
	<path class="st0" d="M1354.4,286.3c0-2.2,1.7-3.9,3.8-3.9s3.8,1.7,3.8,3.9c0,2.2-1.7,3.9-3.8,3.9S1354.4,288.5,1354.4,286.3z"/>
	<path class="st0" d="M1390.8,237.4h34.7v5.1h-28.5v19h24.6v5.1h-24.6v17.8h29.4v5.1h-35.6V237.4z"/>
	<path class="st0" d="M1429.3,250.8h6.2l5.4,15.3c2,5.7,4.2,12.7,5.9,18.5h0.2c1.8-5.8,4-12.8,6.1-18.5l5.5-15.3h5.6l-14,39.2h-7
		L1429.3,250.8z"/>
	<path class="st0" d="M1502.9,272.1h-30.1c0.5,9.2,6.6,13.3,14.3,13.3c5.9,0,9.9-2.8,12.6-5.5l2.8,4.2c-5,4.5-10.1,6-15.4,6
		c-13.3,0-20.4-8-20.4-19.9c0-11.5,6.9-19.9,19.1-19.9c10.6,0,17.3,6.6,17.3,17.6C1503.2,269.1,1503.1,270.6,1502.9,272.1z
		 M1472.9,267.9h24.2c0.1-0.4,0.1-0.7,0.1-1.1c0-7.3-4.3-12-11.3-12C1478.5,254.8,1473.4,259.5,1472.9,267.9z"/>
	<path class="st0" d="M1530.6,250.8l-0.1,5.1c-1.1-0.2-2.3-0.4-3.5-0.4c-6.9,0-9.9,8.2-9.9,17.6v16.5h-5.9v-38.7h4.9l0.5,9.8
		c1.4-5.5,4.7-10.3,10.4-10.3C1528.2,250.4,1529.5,250.5,1530.6,250.8z"/>
	<path class="st0" d="M1568.8,250.8l-19.4,51.4h-5.9l4.7-12.2l-15.5-39.2h6.2l7,18.2c1.8,4.7,3.6,9.6,5.3,14.4h0.1
		c1.6-4.5,3.1-8.9,5-14.4l6.6-18.2H1568.8z"/>
	<path class="st0" d="M1625.7,250.8l-11.2,39.1h-7.2l-4.9-17.6l-3.7-14.1l-3.8,14.2l-5,17.5h-7.3l-11-39.1h5.6l5.2,18.5l4,15l4-15
		l5.2-18.8h6.3l5.1,18.8l4,15.1l4-15.1l5.2-18.5H1625.7z"/>
	<path class="st0" d="M1664.8,265v24.6h-5.8v-23.2c0-6.8-3.1-10.9-9.7-10.9c-9.4,0-11.3,8.2-11.3,13.7v20.5h-5.9v-57.5h5.9v24.8
		c2.4-3.9,6.9-6.6,12.8-6.6C1660.1,250.3,1664.8,255.8,1664.8,265z"/>
	<path class="st0" d="M1708.2,272.1h-30.1c0.5,9.2,6.6,13.3,14.3,13.3c5.9,0,9.9-2.8,12.6-5.5l2.8,4.2c-5,4.5-10.1,6-15.4,6
		c-13.3,0-20.4-8-20.4-19.9c0-11.5,6.9-19.9,19.1-19.9c10.6,0,17.3,6.6,17.3,17.6C1708.5,269.1,1708.4,270.6,1708.2,272.1z
		 M1678.2,267.9h24.2c0.1-0.4,0.1-0.7,0.1-1.1c0-7.3-4.3-12-11.3-12C1683.8,254.8,1678.7,259.5,1678.2,267.9z"/>
	<path class="st0" d="M1735.9,250.8l-0.1,5.1c-1.1-0.2-2.3-0.4-3.5-0.4c-6.9,0-9.9,8.2-9.9,17.6v16.5h-5.9v-38.7h4.9l0.5,9.8
		c1.4-5.5,4.7-10.3,10.4-10.3C1733.5,250.4,1734.8,250.5,1735.9,250.8z"/>
	<path class="st0" d="M1774.7,272.1h-30.1c0.5,9.2,6.6,13.3,14.3,13.3c5.9,0,9.9-2.8,12.6-5.5l2.8,4.2c-5,4.5-10.1,6-15.4,6
		c-13.3,0-20.4-8-20.4-19.9c0-11.5,6.9-19.9,19.1-19.9c10.6,0,17.3,6.6,17.3,17.6C1775,269.1,1774.9,270.6,1774.7,272.1z
		 M1744.7,267.9h24.2c0.1-0.4,0.1-0.7,0.1-1.1c0-7.3-4.3-12-11.3-12C1750.3,254.8,1745.2,259.5,1744.7,267.9z"/>
	<path class="st0" d="M1781.7,286.3c0-2.2,1.7-3.9,3.8-3.9s3.8,1.7,3.8,3.9c0,2.2-1.7,3.9-3.8,3.9S1781.7,288.5,1781.7,286.3z"/>
</g>
</svg>
