<?xml version="1.0" encoding="utf-8"?>
<!-- Generator: Adobe Illustrator 24.3.0, SVG Export Plug-In . SVG Version: 6.00 Build 0)  -->
<svg version="1.1" id="Layer_1" xmlns="http://www.w3.org/2000/svg" xmlns:xlink="http://www.w3.org/1999/xlink" x="0px" y="0px"
	 viewBox="0 0 1785.6 302.2" style="enable-background:new 0 0 1785.6 302.2;" xml:space="preserve">
<style type="text/css">
	.st0{fill:#424241;}
	.st1{fill:#0F7EC2;}
	.st2{opacity:0.3;fill:url(#SVGID_1_);}
	.st3{fill:#117EC1;}
	.st4{fill:#424143;}
</style>
<g id="Avatar_2_">
	<path id="Avatar_Bottom_2_" class="st0" d="M272.9,148l0.8,29.7c0.4,6.4-4.8,11.8-11.1,11.7c-6.4,0-11.5-5.4-11.1-11.7
		c0,0,0.8-29.7,0.8-29.7H101.2l0.8,29.7c0.4,6.3-4.9,11.8-11.1,11.7c-6.5,0.2-11.7-6-11.1-11.7c0-0.6,0.8-29.7,0.8-29.7H0.2
		c230.1,200.5,123.5,199.7,353.1,0H272.9z"/>
	<path id="Avatar_Right_2_" class="st1" d="M278.5,9.6c-4.6-9.2-17.8-12.6-26.2-6.4c-2.6,2-149.1,120.5-151.7,122.6h152.1l2.8-105.6
		h0c0.1-8.9,14.1-8.8,13.9,0.2c0,0.1,2.8,105.3,2.8,105.4h81L278.5,9.6z"/>
	<path id="Avatar_Left_2_" class="st1" d="M74.9,9.6C79.5,0.4,92.7-3,101.1,3.1c2.6,2,149.1,120.5,151.7,122.6H100.6L97.9,20.1h0
		c-0.1-8.9-14.1-8.8-13.9,0.2c0,0.1-2.8,105.3-2.8,105.4h-81L74.9,9.6z"/>
	<linearGradient id="SVGID_1_" gradientUnits="userSpaceOnUse" x1="206.9478" y1="103.2913" x2="261.9092" y2="44.3987">
		<stop  offset="0.1394" style="stop-color:#231F20"/>
		<stop  offset="0.7122" style="stop-color:#2483C5;stop-opacity:0"/>
	</linearGradient>
	<path class="st2" d="M247.6,6.9l-70.9,57.3l76,61.4l2.8-105.6h0c0-1.7,0.7-3.2,1.7-4.4L247.6,6.9z"/>
</g>
<g>
	<path class="st3" d="M608.5,55v142.5h-31.4v-76.2l-35.8,76.2h-19.1l-35.8-76.2v76.2H455V55h28.6l48.1,103.4L579.9,55H608.5z"/>
	<path class="st4" d="M637.2,61.7c0-9.3,7.8-16.8,17.3-16.8c9.6,0,17.3,7.5,17.3,16.8s-7.8,16.8-17.3,16.8
		C644.9,78.4,637.2,70.9,637.2,61.7z M639.6,94.5h30v103h-30V94.5z"/>
	<path class="st4" d="M762.6,200.8c-37,0-63.1-18.1-63.1-59V55H732v83c0,24,12.7,34,30.6,34c17.9,0,30.6-9.9,30.6-34V55h32.5v86.8
		C825.7,182.7,799.6,200.8,762.6,200.8L762.6,200.8z"/>
	<path class="st4" d="M988.6,117.4V186c0,0-20.1,14.8-58.8,14.8c-50.4,0-77.6-35.3-77.6-74.5c0-40.2,27.8-74.9,78.3-74.9
		c21.1,0,36.7,5.2,50,13.4l-14.9,25.2c-4.7-3-17.5-10.5-33.9-10.4c-25.6,0.1-46.1,17.5-46.1,46.7c0,27,17.2,46.7,45,47
		c11,0.1,20.7-1.9,27.3-4.9V140h-32v-22.6L988.6,117.4z"/>
	<path class="st4" d="M1087.4,200.8c-47,0-77.8-33.4-77.8-74.8c0-41.4,30.8-74.6,77.8-74.6c46.9,0,77.8,33.2,77.8,74.6
		C1165.1,167.3,1134.3,200.8,1087.4,200.8L1087.4,200.8z M1087.4,172c27.3,0,44.4-21.8,44.4-46.1c0-24.5-16.9-45.8-44.4-45.8
		s-44.4,21.4-44.4,45.8C1043,150.2,1059.9,172,1087.4,172L1087.4,172z"/>
	<path class="st3" d="M1318,200.8c-46.2,0-76.6-33.4-76.6-74.8c0-41.4,30.3-74.7,76.6-74.7c17.9,0,33.6,5.1,46.1,13.9l-17.2,25.4
		c-7.4-6.6-17.4-10.6-28.5-10.6c-27,0-43.6,21.5-43.6,46c0,24.2,16.6,45.9,43.6,45.9c11.1,0,21.1-4,28.5-10.7l17.2,25.4
		C1351.5,195.6,1335.9,200.8,1318,200.8L1318,200.8z"/>
	<path class="st3" d="M1469.6,167.3l-54.8,0l-10.5,30.2h-35L1425.6,55h33.3l56.2,142.5h-35L1469.6,167.3z M1461.9,144.9l-19.6-56.6
		l-19.6,56.6H1461.9z"/>
	<path class="st3" d="M1635.8,150.6c8.8,14.9,13,32.6,24.4,47h-39c-6.5-11.8-10.3-31.1-18.4-43.1c-7.7-11.5-20.8-15-36.4-15.1
		c-0.8,0-1.5,0-2.2,0v58.2h-32.5V55h67.9c24.7,0,50.9,12.5,50.9,40.3c0,21.7-16.3,33.8-36.7,39
		C1623.3,137.6,1631.1,142.7,1635.8,150.6L1635.8,150.6z M1564.2,79.5v39.1h29.2c15.5,0,23.7-7.5,23.7-19.4
		c0-12.2-8.8-19.7-25.4-19.7L1564.2,79.5z"/>
	<path class="st3" d="M1716,81.6v33.5h59.2v22.5H1716V171h70.3v26.5h-102.8V55h102.8v26.5L1716,81.6z"/>
</g>
<g>
	<path class="st4" d="M787.9,263.5C786.1,238.8,819,228,834,245l-4.3,4.1c-11-13.4-37-5.7-35.4,14.3c-1.1,21,25,27.8,36,13.8
		l4.1,4.2C817.9,299.2,786.8,288.2,787.9,263.5z"/>
	<path class="st4" d="M837.8,270.3c-1.1-26.4,40.5-26.3,39.5,0C878.3,296.5,836.8,296.4,837.8,270.3z M871.4,270.3
		c0.7-19.7-28.3-19.7-27.5,0C843,289.8,872.1,289.8,871.4,270.3z"/>
	<path class="st4" d="M917.8,265v24.6H912c-1.5-8.7,5.4-35-9.7-34.2c-17,0.7-9.8,24.1-11.3,34.2h-5.9v-38.7h5.2l0.3,6.9
		C896.6,245.4,919.4,248.8,917.8,265z"/>
	<path class="st4" d="M960.2,265v24.6h-5.8c-1.5-8.7,5.4-35-9.7-34.2c-17,0.7-9.8,24.1-11.3,34.2h-5.9v-38.7h5.2l0.3,6.9
		C939,245.4,961.9,248.8,960.2,265z"/>
	<path class="st4" d="M1003.6,272.1h-30.1c0,15.3,19.8,16.5,27,7.8l2.8,4.2c-13.4,12.5-37.2,4.5-35.8-13.9
		C966.4,243.1,1008.8,243.7,1003.6,272.1z M973.6,267.9h24.2C999.8,250.5,973.3,250.6,973.6,267.9z"/>
	<path class="st4" d="M1009.5,270.2c-1.2-18.8,23.3-26.3,35.3-13.6l-3.3,4.2c-7.6-9.8-27-5.7-25.9,9.4c-1.1,15.3,18.6,19.3,26,9.5
		l3.5,4.2C1032.6,296.6,1008.7,289.2,1009.5,270.2z"/>
	<path class="st4" d="M1057.5,278.1v-22.6h-8.8v-4.7c11.1,1.1,9.1-3.5,9.2-12.1h5.3v12.1h12.9v4.7h-12.9v22.1c-1,8.9,7,8.1,13.1,6.8
		l0.1,4.8C1067.5,291.5,1056.6,290,1057.5,278.1z"/>
	<path class="st4" d="M1116.6,272.1h-30.1c0,15.3,19.8,16.5,27,7.8l2.8,4.2c-13.4,12.5-37.2,4.5-35.8-13.9
		C1079.5,243.1,1121.8,243.7,1116.6,272.1z M1086.6,267.9h24.2C1112.9,250.5,1086.3,250.6,1086.6,267.9z"/>
	<path class="st4" d="M1161.3,232.1v57.5h-5.3l-0.5-8.2c-9,17-35.1,7.3-33.1-11.2c-2.1-18.3,23.9-27.6,33-12v-26.1H1161.3z
		 M1155.6,270.2c0.4-19.4-27.8-19.7-27.1,0C1127.6,289.6,1156.1,289.7,1155.6,270.2z"/>
	<path class="st4" d="M1188.7,263.5c-1.8-24.6,31.1-35.5,46.1-18.5l-4.3,4.1c-11-13.4-37-5.7-35.4,14.3c-1.1,21,25,27.8,36,13.8
		l4.1,4.2C1218.7,299.2,1187.6,288.2,1188.7,263.5z"/>
	<path class="st4" d="M1277.6,250.8v38.7h-5.3l-0.5-8.3c-8.8,17.2-34.9,7.8-33.1-10.9c-2-18.8,24.5-28,33.2-11.7l0.4-7.8H1277.6z
		 M1271.8,270.3c0.6-19.4-28-19.8-27.1,0C1243.9,289.6,1272.2,289.7,1271.8,270.3z"/>
	<path class="st4" d="M1306.9,250.8l-0.1,5.1c-16.4-4.7-13.2,23-13.4,33.7h-5.9v-38.7h4.9l0.5,9.8
		C1294.4,253.7,1300,248.7,1306.9,250.8z"/>
	<path class="st4" d="M1345.8,272.1h-30.1c0,15.3,19.8,16.5,27,7.8l2.8,4.2c-13.4,12.5-37.2,4.5-35.8-13.9
		C1308.6,243.1,1350.9,243.7,1345.8,272.1z M1315.7,267.9h24.2C1342,250.5,1315.5,250.6,1315.7,267.9z"/>
	<path class="st4" d="M1352.7,286.3c-0.1-5.1,7.7-5.1,7.6,0C1360.5,291.4,1352.7,291.4,1352.7,286.3z"/>
	<path class="st3" d="M1389.2,237.4h34.7v5.1h-28.5v19h24.6v5.1h-24.6v17.8h29.4v5.1h-35.6V237.4z"/>
	<path class="st3" d="M1427.7,250.8h6.2c3.7,10.1,8.4,23.6,11.4,33.9h0.2c3.1-10.2,7.9-23.8,11.6-33.9h5.6l-14,39.2h-7L1427.7,250.8
		z"/>
	<path class="st3" d="M1501.3,272.1h-30.1c0,15.3,19.8,16.5,27,7.8l2.8,4.2c-13.4,12.5-37.2,4.5-35.8-13.9
		C1464.1,243.1,1506.5,243.7,1501.3,272.1z M1471.3,267.9h24.2C1497.5,250.5,1471,250.6,1471.3,267.9z"/>
	<path class="st3" d="M1529,250.8l-0.1,5.1c-16.4-4.7-13.2,23-13.4,33.7h-5.9v-38.7h4.9l0.5,9.8C1516.4,253.7,1522,248.7,1529,250.8
		z"/>
	<path class="st3" d="M1567.2,250.8l-19.4,51.4h-5.9l4.7-12.2l-15.5-39.2h6.2c3.5,9,9.1,23.6,12.3,32.5h0.1
		c2.8-8.1,8.4-23.9,11.6-32.5H1567.2z"/>
	<path class="st3" d="M1624.1,250.8l-11.2,39.1h-7.2c-2.3-7.8-6.7-23.9-8.6-31.7c-2,7.8-6.5,23.9-8.8,31.7h-7.3l-11-39.1h5.6
		c2.3,8.3,7,25.3,9.2,33.6c2.2-8.3,6.9-25.5,9.2-33.9h6.3c2.3,8.4,6.9,25.6,9.1,33.9c2.1-8.3,6.9-25.4,9.2-33.7H1624.1z"/>
	<path class="st3" d="M1663.2,265v24.6h-5.8c-1.5-8.7,5.4-35-9.7-34.2c-17,0.7-9.8,24.1-11.3,34.2h-5.9v-57.5h5.9v24.8
		C1643.2,245.6,1665,249.3,1663.2,265z"/>
	<path class="st3" d="M1706.6,272.1h-30.1c0,15.3,19.8,16.5,27,7.8l2.8,4.2c-13.4,12.5-37.2,4.5-35.8-13.9
		C1669.5,243.1,1711.8,243.7,1706.6,272.1z M1676.6,267.9h24.2C1702.8,250.5,1676.3,250.6,1676.6,267.9z"/>
	<path class="st3" d="M1734.3,250.8l-0.1,5.1c-16.4-4.7-13.2,23-13.4,33.7h-5.9v-38.7h4.9l0.5,9.8
		C1721.7,253.7,1727.3,248.7,1734.3,250.8z"/>
	<path class="st3" d="M1773.1,272.1H1743c0,15.3,19.8,16.5,27,7.8l2.8,4.2c-13.4,12.5-37.2,4.5-35.8-13.9
		C1736,243.1,1778.3,243.7,1773.1,272.1z M1743.1,267.9h24.2C1769.3,250.5,1742.8,250.6,1743.1,267.9z"/>
	<path class="st3" d="M1780.1,286.3c-0.1-5.1,7.7-5.1,7.6,0C1787.8,291.4,1780,291.4,1780.1,286.3z"/>
</g>
</svg>
